<svg width="240" height="120" xmlns="http://www.w3.org/2000/svg">
  <!-- Background -->
  <rect width="240" height="120" fill="#22c55e" rx="12"/>
  
  <!-- Lock Icon -->
  <g transform="translate(60, 20)">
    <rect x="10" y="15" width="20" height="25" fill="none" stroke="white" stroke-width="3" rx="2"/>
    <path d="M15 15 V10 A5 5 0 0 1 25 10 V15" fill="none" stroke="white" stroke-width="3"/>
    <circle cx="20" cy="25" r="2" fill="white"/>
  </g>
  
  <!-- Brain Icon -->
  <g transform="translate(140, 20)">
    <path d="M10 15 Q5 10 10 5 Q15 0 25 5 Q35 0 40 5 Q45 10 40 15 Q45 20 40 25 Q45 30 40 35 Q35 40 25 35 Q15 40 10 35 Q5 30 10 25 Q5 20 10 15 Z" fill="white"/>
    <circle cx="18" cy="18" r="1.5" fill="#22c55e"/>
    <circle cx="32" cy="18" r="1.5" fill="#22c55e"/>
    <path d="M15 25 Q25 30 35 25" stroke="#22c55e" stroke-width="1.5" fill="none"/>
  </g>
  
  <!-- VaultMind Text -->
  <text x="120" y="75" font-family="Arial, sans-serif" font-size="24" font-weight="bold" text-anchor="middle" fill="white">VaultMind</text>
  
  <!-- Subtitle -->
  <text x="120" y="95" font-family="Arial, sans-serif" font-size="12" text-anchor="middle" fill="white" opacity="0.9">AI Assistant for Secure Enterprise Knowledge</text>
  
  <!-- Powered by text -->
  <text x="120" y="110" font-family="Arial, sans-serif" font-size="10" text-anchor="middle" fill="white" opacity="0.7">Powered by Generative AI Agents</text>
</svg>
